<svg height="512pt" viewBox="0 0 512 511" width="512pt" xmlns="http://www.w3.org/2000/svg"><path d="m330.667969 277.824219h-277.335938c-5.886719 0-10.664062 4.777343-10.664062 10.667969v213.332031c0 5.886719 4.777343 10.667969 10.664062 10.667969h277.335938c5.886719 0 10.664062-4.78125 10.664062-10.667969v-213.332031c0-5.890626-4.777343-10.667969-10.664062-10.667969zm0 0" fill="#cfd8dc"/><path d="m505.535156 65.367188-149.332031-64c-4.394531-1.878907-9.535156-.597657-12.523437 3.136718l-42.667969 53.332032c-2.003907 2.515624-2.773438 5.800781-2.089844 8.960937.683594 3.15625 2.753906 5.800781 5.652344 7.25l161.132812 80.554687c4.542969 2.285157 9.449219 3.414063 14.335938 3.414063 5.824219 0 11.625-1.621094 16.808593-4.800781 9.472657-5.886719 15.148438-16.0625 15.148438-27.242188v-50.816406c0-4.265625-2.539062-8.125-6.464844-9.789062zm0 0" fill="#455a64"/><path d="m463.445312 129.621094-128-64c-2.667968-1.320313-5.71875-1.472656-8.511718-.445313l-156.714844 58.773438c-11.265625 4.199219-20.863281 12.199219-27.03125 22.484375l-44.285156 73.8125c-9.429688 15.722656-10.175782 34.902344-1.964844 51.285156l3.136719 6.292969h90.753906c-2.261719-10.601563-7.488281-19.945313-12.460937-26.921875 16.320312-7.019532 38.144531-19.667969 49.21875-32.578125 8.511718 4.992187 21.90625 11.414062 38.652343 14.699219-12.457031 15.425781-25.148437 34.519531-29.757812 47.234374-8.8125 3.96875-27.199219 14.355469-70.039063 41.640626-11.371094 7.234374-19.132812 18.453124-21.929687 31.636718-2.792969 13.1875-.214844 26.648438 7.316406 37.910156 9.558594 14.335938 25.28125 22.167969 41.34375 22.167969 8.726563 0 17.558594-2.304687 25.582031-7.105469l73.300782-43.96875c11.476562-2.792968 68.5-19.859374 111.699218-89.75 45.441406-73.511718 64.234375-127.871093 65.023438-130.152343 1.707031-5.078125-.574219-10.625-5.332032-13.015625zm0 0" fill="#ffcc80"/><path d="m193.171875 413.589844c-16.082031 0-31.804687-7.828125-41.34375-22.164063-7.507813-11.242187-10.109375-24.683593-7.316406-37.847656 2.773437-13.183594 10.558593-24.445313 21.929687-31.679687 42.816406-27.21875 61.226563-37.632813 70.039063-41.597657 4.585937-12.738281 17.300781-31.832031 29.757812-47.253906-16.746093-3.285156-30.140625-9.707031-38.652343-14.699219-11.074219 12.90625-32.898438 25.578125-49.21875 32.574219 6.570312 9.21875 13.632812 22.59375 13.632812 37.570313 0 5.886718-4.777344 10.664062-10.667969 10.664062-5.886719 0-10.664062-4.777344-10.664062-10.664062 0-18.027344-17.730469-34.667969-17.898438-34.839844-3.222656-2.984375-4.289062-7.613282-2.691406-11.710938 1.601563-4.09375 5.527344-6.785156 9.921875-6.785156 8.8125-1.023438 49.769531-24.148438 53.523438-33.300781 0-4.09375 2.261718-7.1875 5.976562-8.957031 3.710938-1.75 8-.597657 11.199219 1.941406.234375.191406 24.128906 18.984375 57.300781 18.984375 4.308594 0 8.214844 2.601562 9.855469 6.59375 1.664062 3.988281.746093 8.574219-2.304688 11.625-19.050781 19.050781-38.484375 50.28125-39.570312 56.980469 0 5.867187-4.757813 10.132812-10.648438 10.132812.214844.238281-10.046875 4.203125-67.453125 40.726562-6.488281 4.117188-10.945312 10.5625-12.523437 18.089844-1.578125 7.53125-.109375 15.191406 4.160156 21.589844 8.445313 12.695312 25.238281 16.425781 38.226563 8.640625l74.734374-44.863281c1.042969-.617188 2.214844-1.089844 3.410157-1.324219.554687-.125 57.601562-12.414063 99.671875-80.46875 33.832031-54.71875 52.671875-99.113281 59.710937-117.140625l-115.265625-57.621094-152.296875 57.128906c-6.761719 2.539063-12.523437 7.320313-16.214843 13.484376l-44.285157 73.8125c-5.675781 9.429687-6.101562 20.929687-1.175781 30.785156l10.859375 21.738281c2.644531 5.269531.492187 11.667969-4.777344 14.3125-5.269531 2.648437-11.671875.472656-14.316406-4.777344l-10.859375-21.738281c-8.210938-16.425781-7.464844-35.605469 1.964844-51.304688l44.285156-73.792968c6.167969-10.285156 15.746094-18.261719 27.011719-22.507813l156.710937-58.773437c2.796875-1.042969 5.867188-.894532 8.515625.449218l128 64c4.777344 2.386719 7.058594 7.933594 5.332031 12.96875-.789062 2.285157-19.5625 56.664063-65.023437 130.175782-43.199219 69.890625-100.226563 86.933594-111.703125 89.75l-73.300781 43.988281c-8.019531 4.824219-16.832031 7.105469-25.558594 7.105469zm0 0"/><path d="m480 157.996094c-4.886719 0-9.769531-1.132813-14.316406-3.394532l-161.128906-80.554687c-2.878907-1.425781-4.949219-4.09375-5.652344-7.25-.703125-3.160156.0625-6.445313 2.089844-8.960937l42.667968-53.332032c2.984375-3.734375 8.125-5.035156 12.519532-3.136718l149.335937 64c3.945313 1.664062 6.484375 5.523437 6.484375 9.789062v50.816406c0 11.160156-5.675781 21.335938-15.167969 27.203125-5.183593 3.21875-10.988281 4.820313-16.832031 4.820313zm-154.089844-97.152344 149.332032 74.667969c4.777343 2.386719 8.855468.445312 10.390624-.472657 1.492188-.9375 5.035157-3.710937 5.035157-9.066406v-43.773437l-135.402344-58.050781zm0 0"/><path d="m330.667969 512.492188h-277.335938c-5.886719 0-10.664062-4.78125-10.664062-10.667969v-213.332031c0-5.890626 4.777343-10.667969 10.664062-10.667969h181.335938c5.886719 0 10.664062 4.777343 10.664062 10.667969 0 5.886718-4.777343 10.664062-10.664062 10.664062h-170.667969v192h256v-149.332031c0-5.886719 4.777344-10.667969 10.667969-10.667969 5.886719 0 10.664062 4.78125 10.664062 10.667969v160c0 5.886719-4.777343 10.667969-10.664062 10.667969zm0 0"/><path d="m373.332031 512.492188h-362.664062c-5.890625 0-10.667969-4.78125-10.667969-10.667969s4.777344-10.667969 10.667969-10.667969h362.664062c5.890625 0 10.667969 4.78125 10.667969 10.667969s-4.777344 10.667969-10.667969 10.667969zm0 0"/></svg>